<?xml version="1.0" encoding="utf-8"?>
<svg viewBox="31.553 190.589 420.002 51.255" xmlns="http://www.w3.org/2000/svg">
  <g transform="matrix(1.333333, 0, 0, -1.333333, 31.554934, 242.588867)" id="g10">
    <g transform="scale(0.1)" id="g12">
      <path id="path14" style="fill-opacity: 1; fill-rule: nonzero; stroke: none; fill: rgb(255, 255, 255);" d="m 578.871,23.6289 6.867,-16.86718 h 9.102 l -1.481,3.78908 -24.609,60.7383 h -3.629 L 540.551,10.5508 539.02,6.76172 h 9.14 l 6.879,16.86718 z m -11.922,29.5313 8.481,-21.0508 h -16.95 z"/>
      <path id="path16" style="fill-opacity: 1; fill-rule: nonzero; stroke: none; fill: rgb(255, 255, 255);" d="M 717.969,23.3203 680.16,71.2891 h -6.332 V 6.76172 h 8.473 V 54.7695 L 720.199,6.76172 h 6.321 V 71.2891 h -8.551 z"/>
      <path id="path18" style="fill-opacity: 1; fill-rule: nonzero; stroke: none; fill: rgb(255, 255, 255);" d="m 848.91,23.6289 6.871,-16.86718 h 9.141 l -1.524,3.78908 -24.57,60.7383 H 835.16 L 810.59,10.5508 809.102,6.76172 h 9.097 l 6.879,16.86718 z m -11.922,29.5313 8.481,-21.0508 H 828.52 Z"/>
      <path id="path20" style="fill-opacity: 1; fill-rule: nonzero; stroke: none; fill: rgb(255, 255, 255);" d="m 970.551,13.3203 v 1.9492 H 946.52 v 56.0196 h -8.469 V 6.76172 h 32.5 z"/>
      <path id="path22" style="fill-opacity: 1; fill-rule: nonzero; stroke: none; fill: rgb(255, 255, 255);" d="m 1038.4,71.2891 h -6.56 V 6.76172 h 8.47 V 71.2891 Z"/>
      <path id="path24" style="fill-opacity: 1; fill-rule: nonzero; stroke: none; fill: rgb(255, 255, 255);" d="m 1129.88,61.0898 6.57,5.2813 c -1.53,1.9102 -3.44,3.4297 -5.71,4.4883 -2.15,1.0508 -4.49,1.6015 -6.95,1.6015 -4.41,0 -8.52,-1.7226 -11.6,-4.8007 -3.01,-3.0118 -4.73,-7.2305 -4.73,-11.4883 0,-10.4336 7.19,-14.0625 15.55,-17.8516 5.82,-2.4609 11.83,-4.9219 11.83,-12.3398 0,-3.0899 -1.29,-6.1016 -3.55,-8.3594 -2.15,-2.2695 -5.16,-3.4414 -8.36,-3.4414 -2.15,0 -4.22,0.5508 -6.13,1.6016 -1.72,1.0976 -3.25,2.5781 -4.18,4.4179 l -0.12,0.1914 -7.5,-4.0625 v -0.1172 c 1.8,-3.0898 4.38,-5.7812 7.5,-7.73043 3.12,-1.80078 6.76,-2.89063 10.43,-2.89063 5.47,0 10.62,2.14063 14.37,6.01176 3.87,3.8672 6.02,9.0195 6.02,14.3789 0,11.8281 -7.42,16.0078 -16.99,20.1914 -4.49,1.9179 -10.39,4.0586 -10.39,10 0,2.0273 0.86,4.0586 2.26,5.4687 1.49,1.4805 3.44,2.3399 5.59,2.3399 1.17,0 2.23,-0.3086 3.32,-0.7422 1.05,-0.5391 2.03,-1.2891 2.77,-2.1485 z"/>
      <path id="path26" style="fill-opacity: 1; fill-rule: nonzero; stroke: none; fill: rgb(255, 255, 255);" d="m 1228.48,62.8086 h 15.47 v 8.4805 h -39.42 V 62.8086 H 1220 V 6.76172 h 8.48 z"/>
      <path id="path28" style="fill-opacity: 1; fill-rule: nonzero; stroke: none; fill: rgb(255, 255, 255);" d="m 1341.09,23.6289 6.88,-16.86718 h 9.1 l -1.48,3.78908 -24.57,60.7383 h -3.68 l -24.57,-60.7383 -1.52,-3.78908 h 9.14 l 6.88,16.86718 z m -11.91,29.5313 8.48,-21.0508 h -16.96 z"/>
      <path id="path30" style="fill-opacity: 1; fill-rule: nonzero; stroke: none; fill: rgb(255, 255, 255);" d="M 1510.51,71.2891 V 6.76172 h 18.98 c 8.6,0 16.76,3.35938 22.85,9.44918 6.02,6.1289 9.46,14.3008 9.46,22.8907 0,8.5586 -3.44,16.7187 -9.46,22.7382 -6.09,6.129 -14.25,9.4493 -22.85,9.4493 z m 8.47,-8.4805 h 10.51 c 6.33,0 12.35,-2.457 16.88,-6.9883 4.37,-4.3711 6.95,-10.3906 6.95,-16.7187 0,-6.3711 -2.58,-12.3399 -6.95,-16.8711 -4.53,-4.5 -10.55,-6.961 -16.88,-6.961 h -10.51 z"/>
      <path id="path32" style="fill-opacity: 1; fill-rule: nonzero; stroke: none; fill: rgb(255, 255, 255);" d="m 1641.05,62.8086 h 22.11 v 8.4805 h -30.58 V 6.76172 h 30.58 v 8.50778 h -22.11 v 15.5508 h 16.72 v 8.5899 h -16.72 z"/>
      <path id="path34" style="fill-opacity: 1; fill-rule: nonzero; stroke: none; fill: rgb(255, 255, 255);" d="m 1833.95,61.0898 6.56,5.2813 c -1.49,1.9102 -3.44,3.4297 -5.71,4.4883 -2.14,1.0508 -4.49,1.6015 -6.95,1.6015 -4.41,0 -8.47,-1.7226 -11.6,-4.8007 -3.01,-3.0118 -4.73,-7.2305 -4.73,-11.4883 0,-10.4336 7.19,-14.0625 15.59,-17.8516 5.78,-2.4609 11.8,-4.9219 11.8,-12.3398 0,-3.0899 -1.29,-6.1016 -3.56,-8.3594 -2.15,-2.2695 -5.15,-3.4414 -8.36,-3.4414 -2.15,0 -4.18,0.5508 -6.13,1.6016 -1.72,1.0976 -3.2,2.5781 -4.18,4.4179 l -0.12,0.1914 -7.5,-4.0625 v -0.1172 c 1.84,-3.0898 4.42,-5.7812 7.5,-7.73043 3.13,-1.80078 6.76,-2.89063 10.43,-2.89063 5.47,0 10.63,2.14063 14.38,6.01176 3.86,3.8672 6.01,9.0195 6.01,14.3789 0,11.8281 -7.42,16.0078 -16.95,20.1914 -4.53,1.9179 -10.43,4.0586 -10.43,10 0,2.0273 0.86,4.0586 2.27,5.4687 1.48,1.4805 3.43,2.3399 5.58,2.3399 1.17,0 2.23,-0.3086 3.32,-0.7422 1.06,-0.5391 2.03,-1.2891 2.78,-2.1485 z"/>
      <path id="path36" style="fill-opacity: 1; fill-rule: nonzero; stroke: none; fill: rgb(255, 255, 255);" d="m 1915.55,71.2891 h -6.57 V 6.76172 h 8.48 V 71.2891 Z"/>
      <path id="path38" style="fill-opacity: 1; fill-rule: nonzero; stroke: none; fill: rgb(255, 255, 255);" d="m 2007.03,61.0898 6.56,5.2813 c -1.52,1.9102 -3.43,3.4297 -5.7,4.4883 -2.15,1.0508 -4.53,1.6015 -6.99,1.6015 -4.38,0 -8.48,-1.7226 -11.6,-4.8007 -2.97,-3.0118 -4.69,-7.2305 -4.69,-11.4883 0,-10.4336 7.19,-14.0625 15.55,-17.8516 5.78,-2.4609 11.79,-4.9219 11.79,-12.3398 0,-3.0899 -1.29,-6.1016 -3.51,-8.3594 -2.15,-2.2695 -5.16,-3.4414 -8.4,-3.4414 -2.15,0 -4.18,0.5508 -6.09,1.6016 -1.72,1.0976 -3.25,2.5781 -4.22,4.4179 l -0.08,0.1914 -7.54,-4.0625 v -0.1172 c 1.84,-3.0898 4.41,-5.7812 7.54,-7.73043 3.08,-1.80078 6.76,-2.89063 10.39,-2.89063 5.47,0 10.62,2.14063 14.37,6.01176 3.87,3.8672 6.02,9.0195 6.02,14.3789 0,11.8281 -7.38,16.0078 -16.95,20.1914 -4.5,1.9179 -10.39,4.0586 -10.39,10 0,2.0273 0.86,4.0586 2.22,5.4687 1.53,1.4805 3.44,2.3399 5.59,2.3399 1.17,0 2.26,-0.3086 3.32,-0.7422 1.09,-0.5391 2.07,-1.2891 2.81,-2.1485 z"/>
      <path id="path40" style="fill-opacity: 1; fill-rule: nonzero; stroke: none; fill: rgb(255, 255, 255);" d="m 2105.62,62.8086 h 15.47 v 8.4805 h -39.41 v -8.4805 h 15.47 V 6.76172 h 8.47 z"/>
      <path id="path42" style="fill-opacity: 1; fill-rule: nonzero; stroke: none; fill: rgb(255, 255, 255);" d="m 2199.92,62.8086 h 22.11 v 8.4805 h -30.58 V 6.76172 h 30.58 v 8.50778 h -22.11 v 15.5508 h 16.76 v 8.5899 h -16.76 z"/>
      <path id="path44" style="fill-opacity: 1; fill-rule: nonzero; stroke: none; fill: rgb(255, 255, 255);" d="m 2330.2,46.6016 -24.5,24.6875 h -6.01 V 6.76172 h 8.47 V 56.8008 l 22.04,-22.2305 21.99,22.2305 V 6.76172 h 8.59 V 71.2891 h -6.01 z"/>
      <path id="path46" style="fill-opacity: 1; fill-rule: nonzero; stroke: none; fill: rgb(255, 255, 255);" d="m 2481.84,23.6289 6.87,-16.86718 h 9.1 l -1.48,3.78908 -24.57,60.7383 h -3.67 l -24.57,-60.7383 -1.53,-3.78908 h 9.14 l 6.88,16.86718 z m -11.92,29.5313 8.48,-21.0508 h -16.95 z"/>
      <path id="path48" style="fill-opacity: 1; fill-rule: nonzero; stroke: none; fill: rgb(255, 255, 255);" d="m 2597.54,61.0898 6.56,5.2813 c -1.52,1.9102 -3.44,3.4297 -5.7,4.4883 -2.15,1.0508 -4.49,1.6015 -6.95,1.6015 -4.42,0 -8.48,-1.7226 -11.61,-4.8007 -3,-3.0118 -4.72,-7.2305 -4.72,-11.4883 0,-10.4336 7.18,-14.0625 15.54,-17.8516 5.82,-2.4609 11.84,-4.9219 11.84,-12.3398 0,-3.0899 -1.29,-6.1016 -3.55,-8.3594 -2.15,-2.2695 -5.16,-3.4414 -8.36,-3.4414 -2.15,0 -4.22,0.5508 -6.14,1.6016 -1.72,1.0976 -3.2,2.5781 -4.18,4.4179 l -0.11,0.1914 -7.5,-4.0625 v -0.1172 c 1.79,-3.0898 4.37,-5.7812 7.5,-7.73043 3.12,-1.80078 6.75,-2.89063 10.43,-2.89063 5.46,0 10.62,2.14063 14.37,6.01176 3.87,3.8672 6.02,9.0195 6.02,14.3789 0,11.8281 -7.43,16.0078 -16.96,20.1914 -4.53,1.9179 -10.43,4.0586 -10.43,10 0,2.0273 0.86,4.0586 2.27,5.4687 1.48,1.4805 3.44,2.3399 5.59,2.3399 1.17,0 2.22,-0.3086 3.32,-0.7422 1.05,-0.5391 2.03,-1.2891 2.77,-2.1485 z"/>
      <path id="path50" style="fill-opacity: 1; fill-rule: nonzero; stroke: none; fill: rgb(255, 255, 255);" d="m 170.23,165.941 c 5.282,0 9.891,3.938 9.891,9.879 0,5.27 -4.609,9.879 -9.891,9.879 H 30.5117 L 177.5,373.52 c 2.621,3.32 3.281,7.261 1.289,10.539 C 177.5,387.379 173.52,390 170.23,390 H 10.0781 c -5.89841,0 -9.878881,-4.609 -9.878881,-9.879 0,-5.941 3.980471,-10.551 9.878881,-10.551 H 149.141 L 2.19141,181.762 c -2.66016,-3.321 -2.66016,-7.274 -1.332035,-10.551 1.992185,-3.32 5.269535,-5.27 9.218725,-5.27 z"/>
      <path id="path52" style="fill-opacity: 1; fill-rule: nonzero; stroke: none; fill: rgb(255, 255, 255);" d="m 575.859,165.941 c 5.27,0 9.879,3.938 9.879,9.879 0,5.27 -4.609,9.879 -9.879,9.879 h -160.16 c -5.898,0 -9.879,-4.609 -9.879,-9.879 0,-5.941 3.981,-9.879 9.879,-9.879 z m 1.332,101.481 c 5.27,0 9.879,4.609 9.879,10.547 0,5.269 -4.609,9.883 -9.879,9.883 H 415.699 c -5.898,0 -9.879,-4.614 -9.879,-9.883 0,-5.938 3.981,-10.547 9.879,-10.547 z m -1.332,102.148 c 5.27,0 9.879,4.61 9.879,10.551 0,5.27 -4.609,9.879 -9.879,9.879 h -160.16 c -5.898,0 -9.879,-4.609 -9.879,-9.879 0,-5.941 3.981,-10.551 9.879,-10.551 z"/>
      <path id="path54" style="fill-opacity: 1; fill-rule: nonzero; stroke: none; fill: rgb(255, 255, 255);" d="m 924.141,165.941 c 61.289,0 111.409,49.411 111.409,110.7 v 1.988 C 1035.55,339.922 985.43,390 924.141,390 H 822.66 c -5.281,0 -9.89,-4.609 -9.89,-9.879 0,-5.941 4.609,-10.551 9.89,-10.551 h 101.481 c 50.738,0 91.599,-40.859 91.599,-90.941 v -1.988 c 0,-50.082 -40.861,-90.942 -91.599,-90.942 H 822.66 c -5.281,0 -9.89,-4.609 -9.89,-9.879 0,-5.941 4.609,-9.879 9.89,-9.879 z"/>
      <path id="path56" style="fill-opacity: 1; fill-rule: nonzero; stroke: none; fill: rgb(255, 255, 255);" d="m 1350.86,165.941 c 49.45,0 90.31,40.188 90.31,89.61 v 124.57 c 0,5.27 -4.61,9.879 -9.88,9.879 -5.94,0 -10.55,-4.609 -10.55,-9.879 v -124.57 c 0,-38.871 -30.97,-69.852 -69.88,-69.852 -38.2,0 -69.84,30.981 -69.84,69.852 v 124.57 c 0,5.27 -4.61,9.879 -9.89,9.879 -5.93,0 -9.88,-4.609 -9.88,-9.879 v -124.57 c 0,-49.422 40.2,-89.61 89.61,-89.61 z"/>
      <path id="path58" style="fill-opacity: 1; fill-rule: nonzero; stroke: none; fill: rgb(255, 255, 255);" d="m 1879.73,165.941 c 1.32,0 3.32,0 4.61,0.661 4.61,2.617 6.6,8.558 4.61,13.168 l -101.49,204.289 c -1.95,3.32 -5.27,5.941 -9.22,5.941 -3.94,0 -7.22,-2.621 -8.55,-5.941 L 1668.2,179.77 c -2.65,-4.61 -0.66,-10.551 4.61,-13.168 4.61,-2.653 10.55,-0.661 13.17,4.609 l 92.26,186.488 92.27,-186.488 c 1.99,-3.32 5.27,-5.27 9.22,-5.27 z"/>
      <path id="path60" style="fill-opacity: 1; fill-rule: nonzero; stroke: none; fill: rgb(255, 255, 255);" d="m 2226.05,267.422 h 8.56 c 33.63,0 61.29,27.699 61.29,61.289 0,33.59 -27.66,61.289 -61.29,61.289 H 2125.9 c -5.94,0 -9.92,-4.609 -9.92,-9.879 V 175.82 c 0,-5.941 3.98,-9.879 9.92,-9.879 5.27,0 9.88,3.938 9.88,9.879 v 193.75 h 98.83 c 22.42,0 40.86,-18.441 40.86,-40.859 0,-22.422 -18.44,-40.859 -40.86,-40.859 h -28.99 c -0.66,0 -0.66,0 -1.32,0 0,-0.661 -0.67,-0.661 -0.67,-0.661 -0.66,0 -0.66,0 -1.29,0 0,0 -0.66,0 -0.66,-0.671 h -0.66 c -0.67,-0.661 -0.67,-0.661 -1.33,-0.661 0,-0.629 0,-0.629 -0.67,-0.629 0,0 0,-0.66 -0.66,-0.66 0,-0.66 0,-0.66 -0.66,-0.66 0,-0.672 0,-0.672 -0.63,-1.332 0,0 0,0 0,-0.668 l -0.66,-0.66 c 0,-0.66 0,-0.66 0,-1.289 0,0 0,0 -0.67,-0.66 0,0 0,-0.672 0,-1.332 0,-0.668 0,-0.668 0,-0.668 0,0 0,-0.66 0,-1.321 0,0 0.67,0 0.67,-0.671 v -0.618 c 0,-0.671 0,-0.671 0.66,-1.332 v -0.66 c 0.63,0 0.63,-0.668 0.63,-0.668 v -0.66 l 80.42,-102.152 c 1.96,-1.949 4.61,-3.278 7.9,-3.278 1.99,0 3.94,0.661 5.93,1.95 3.95,3.32 5.28,9.257 1.33,13.871 z"/>
      <path id="path62" style="fill-opacity: 1; fill-rule: nonzero; stroke: none; fill: rgb(255, 255, 255);" d="m 2633.01,165.941 c 61.29,0 111.37,49.411 111.37,110.7 v 1.988 C 2744.38,339.922 2694.3,390 2633.01,390 h -101.49 c -5.27,0 -9.88,-4.609 -9.88,-9.879 0,-5.941 4.61,-10.551 9.88,-10.551 h 101.49 c 50.74,0 91.6,-40.859 91.6,-90.941 v -1.988 c 0,-50.082 -40.86,-90.942 -91.6,-90.942 h -101.49 c -5.27,0 -9.88,-4.609 -9.88,-9.879 0,-5.941 4.61,-9.879 9.88,-9.879 z"/>
      <path id="path64" style="fill-opacity: 1; fill-rule: nonzero; stroke: none; fill: rgb(255, 255, 255);" d="m 3059.73,165.941 c 49.41,0 90.27,40.188 90.27,89.61 v 124.57 c 0,5.27 -4.61,9.879 -9.88,9.879 -5.94,0 -10.55,-4.609 -10.55,-9.879 v -124.57 c 0,-38.871 -30.98,-69.852 -69.84,-69.852 -38.25,0 -69.89,30.981 -69.89,69.852 v 124.57 c 0,5.27 -4.61,9.879 -9.88,9.879 -5.94,0 -9.88,-4.609 -9.88,-9.879 v -124.57 c 0,-49.422 40.19,-89.61 89.65,-89.61 z"/>
    </g>
  </g>
</svg>