<svg width="19" height="20" viewBox="0 0 19 20" fill="none" xmlns="http://www.w3.org/2000/svg">
<path d="M9.33335 0.833252C4.3641 0.833252 0.166687 5.03159 0.166687 9.99992C0.166687 14.9683 4.3641 19.1666 9.33335 19.1666C14.3026 19.1666 18.5 14.9683 18.5 9.99992C18.5 5.03159 14.3026 0.833252 9.33335 0.833252ZM9.33335 12.7499C10.2427 12.7499 11.0292 12.507 11.4353 12.1009L12.7314 13.398C11.6993 14.4293 10.1593 14.5833 9.33335 14.5833C6.8061 14.5833 4.75002 12.5272 4.75002 9.99992C4.75002 7.47267 6.8061 5.41659 9.33335 5.41659C10.1593 5.41659 11.7002 5.57059 12.7314 6.60184L11.4353 7.898C11.0301 7.49192 10.2436 7.24992 9.33335 7.24992C7.84285 7.24992 6.58335 8.50942 6.58335 9.99992C6.58335 11.4904 7.84285 12.7499 9.33335 12.7499Z" fill="#656579"/>
</svg>
